<svg id="Layer_1" data-name="Layer 1" xmlns="http://www.w3.org/2000/svg" viewBox="0 0 33.61 21.52"><title>Header-Icon-PWA-truck</title><path d="M7.07,21.52a4.14,4.14,0,1,1,4.13-4.13A4.14,4.14,0,0,1,7.07,21.52Zm0-7.27a3.14,3.14,0,1,0,3.13,3.14A3.15,3.15,0,0,0,7.07,14.25Z"/><circle cx="7.07" cy="17.39" r="1.16"/><path d="M27.6,21.52a4.14,4.14,0,1,1,4.14-4.13A4.13,4.13,0,0,1,27.6,21.52Zm0-7.27a3.14,3.14,0,1,0,3.14,3.14A3.14,3.14,0,0,0,27.6,14.25Z"/><circle cx="27.6" cy="17.39" r="1.16"/><path d="M22.5,18.62H10.63a.5.5,0,0,1-.5-.5.5.5,0,0,1,.5-.5H22V1H1V17.62H3.43a.5.5,0,0,1,.5.5.5.5,0,0,1-.5.5H.5a.5.5,0,0,1-.5-.5V.5A.5.5,0,0,1,.5,0h22a.5.5,0,0,1,.5.5V18.12A.5.5,0,0,1,22.5,18.62Z"/><path d="M32.92,18.62H31.51a.5.5,0,0,1-.5-.5.5.5,0,0,1,.5-.5h.91V9.48L28.51,4.24H23V17.62h1a.51.51,0,0,1,.5.5.5.5,0,0,1-.5.5H22.5a.5.5,0,0,1-.5-.5V3.74a.51.51,0,0,1,.5-.5h6.26a.51.51,0,0,1,.4.2L33.32,9a.47.47,0,0,1,.1.3v8.81A.5.5,0,0,1,32.92,18.62Z"/><path d="M20.2,3.49H6.65a.5.5,0,0,1-.5-.5.51.51,0,0,1,.5-.5H20.2a.5.5,0,0,1,.5.5A.5.5,0,0,1,20.2,3.49Z"/><path d="M20.2,6.49H11.06a.5.5,0,0,1-.5-.5.5.5,0,0,1,.5-.5H20.2a.5.5,0,0,1,.5.5A.5.5,0,0,1,20.2,6.49Z"/><path d="M32.92,10.73H25.69a.5.5,0,0,1-.5-.5V3.74a.5.5,0,1,1,1,0v6h6.73a.5.5,0,0,1,.5.5A.5.5,0,0,1,32.92,10.73Z"/></svg>