<svg id="Layer_1" data-name="Layer 1" xmlns="http://www.w3.org/2000/svg" viewBox="0 0 20.66 26.69"><title>Header-Icon-PWA-bag</title><path d="M20.12,26.69H.5a.5.5,0,0,1-.5-.5V21.78L1.42,5.86a.49.49,0,0,1,.49-.46H19.29a.51.51,0,0,1,.5.48l.83,16v4.35A.5.5,0,0,1,20.12,26.69ZM1,26.19H1Zm0-.5H19.62V21.87L18.81,6.4H2.37L1,21.83Z"/><path d="M6.41,9.4A.5.5,0,0,1,6,9.08C5.88,8.9,4.12,4.5,5.89,1.86,6.71.63,8.15,0,10.16,0h0c2.1,0,3.62.65,4.5,1.93,1.81,2.65.18,7,.11,7.15a.51.51,0,0,1-.65.28.5.5,0,0,1-.28-.64s1.51-4,0-6.22C13.16,1.5,11.9,1,10.16,1A3.86,3.86,0,0,0,6.72,2.42c-1.48,2.2.14,6.25.16,6.29a.5.5,0,0,1-.28.65A.58.58,0,0,1,6.41,9.4Z"/></svg>