<svg id="Layer_1" data-name="Layer 1" xmlns="http://www.w3.org/2000/svg" viewBox="0 0 27.26 27.26"><title>Header-Icon-PWA-profile</title><path d="M13.63,27.26A13.63,13.63,0,1,1,27.26,13.63,13.65,13.65,0,0,1,13.63,27.26ZM13.63,1A12.63,12.63,0,1,0,26.26,13.63,12.65,12.65,0,0,0,13.63,1Z"/><path d="M13.29,14.72A4.72,4.72,0,1,1,18,10,4.73,4.73,0,0,1,13.29,14.72Zm0-8.43A3.72,3.72,0,1,0,17,10,3.73,3.73,0,0,0,13.29,6.29Z"/><path d="M14.3,27.26h-1A13.62,13.62,0,0,1,6.94,25.5a.48.48,0,0,1-.24-.42V21.54a6.44,6.44,0,0,1,6.42-6.43h1a6.44,6.44,0,0,1,6.43,6.43v3.54a.52.52,0,0,1-.22.41A11.78,11.78,0,0,1,14.3,27.26ZM7.7,24.78a12.74,12.74,0,0,0,5.59,1.48h1a11,11,0,0,0,5.26-1.46V21.54a5.44,5.44,0,0,0-5.43-5.43h-1A5.43,5.43,0,0,0,7.7,21.54Z"/></svg>